<?xml version="1.0" encoding="UTF-8"?>
<svg id="Layer_1" data-name="Layer 1" xmlns="http://www.w3.org/2000/svg" viewBox="0 0 1024 1024">
  <defs>
    <style>
      .cls-1 {
        fill: #fff;
      }
    </style>
  </defs>
  <path class="cls-1" d="M557.32,884.53c53.3-1.09,101.11-16.98,145.81-40.5,126.07-66.34,200.99-194.84,200.42-337.08-.72-179-131.17-332.43-307.31-363.94-69.28-12.4-135.92,10.5-179.76,66.86-62.88,80.83-46.64,168.72-14.8,259.25l55.5,157.78c11.81,33.59,20.58,66.27,28.02,100.98,3.05,14.24,3.36,29.85.88,43.96-4.14,23.54-24.24,38.1-48.55,36.24-25.61-1.96-50.73-13.21-69.32-32.09-79.17-80.37-104.67-225.62-98.16-334.32,2.66-44.39,10.78-86.69,22.48-129.1,18.45-66.86,57.86-138.35,122.47-173.1l-275.08-.19c-9.56,0-19.43,7.01-19.44,18.17l-.03,707.45c0,12.06,8.58,19.36,19.55,19.38l264.87.46c32.43.06,63.27-6.04,90.25-22.05,38.85-23.05,66.17-57.43,81.77-99.44,18.94-50.99,17.27-104.13,2.19-156.13-11.83-40.81-25.09-78.97-39.93-118.94-24.49-66-58.92-155.41-61.37-223.76-1.11-30.98,23.22-52.07,52.75-48.54,35.41,4.22,64.95,23.71,86.36,52.17,24.96,33.18,43.03,68.69,55.31,109.07,35.72,117.43,33.91,225.08.7,343.04-22.68,67.85-53.31,124.44-115.58,164.38Z"/>
  <path d="M557.32,884.53c62.27-39.94,92.9-96.53,115.58-164.38,33.21-117.96,35.02-225.62-.7-343.04-12.29-40.39-30.35-75.89-55.31-109.07-21.41-28.46-50.95-47.94-86.36-52.17-29.53-3.52-53.86,17.56-52.75,48.54,2.45,68.35,36.88,157.76,61.37,223.76,14.84,39.97,28.1,78.13,39.93,118.94,15.07,51.99,16.74,105.14-2.19,156.13-15.6,42.01-42.92,76.39-81.77,99.44-26.97,16.01-57.81,22.1-90.25,22.05l-264.87-.46c-10.97-.02-19.55-7.32-19.55-19.38l.03-707.45c0-11.16,9.88-18.18,19.44-18.17l275.08.19c-64.61,34.75-104.02,106.24-122.47,173.1-11.7,42.41-19.82,84.71-22.48,129.1-6.51,108.7,18.99,253.95,98.16,334.32,18.59,18.87,43.71,30.13,69.32,32.09,24.31,1.86,44.41-12.7,48.55-36.24,2.48-14.11,2.17-29.72-.88-43.96-7.44-34.7-16.2-67.39-28.02-100.98l-55.5-157.78c-31.84-90.52-48.08-178.41,14.8-259.25,43.84-56.36,110.48-79.25,179.76-66.86,176.14,31.51,306.59,184.94,307.31,363.94.57,142.24-74.35,270.74-200.42,337.08-44.7,23.52-92.51,39.41-145.81,40.5Z"/>
</svg>