<svg width="300" height="49" viewBox="0 0 300 49" fill="none" xmlns="http://www.w3.org/2000/svg">
<g filter="url(#filter0_dd_20_319)">
<rect x="9.18835" y="4.70605" width="46.6143" height="30.0304" rx="5.37857" fill="white"/>
<rect x="9.0763" y="4.594" width="46.8384" height="30.2545" rx="5.49062" stroke="#D6DCE5" stroke-width="0.224107"/>
<path d="M32.2105 14.827L30.0362 24.9906H27.4071L29.5817 14.827H32.2105ZM43.2722 21.3897L44.6563 17.5729L45.4528 21.3897H43.2722ZM46.2056 24.9906H48.6375L46.5153 14.827H44.2707C43.7663 14.827 43.3407 15.1204 43.1512 15.5727L39.2067 24.9906H41.9677L42.5159 23.4729H45.889L46.2056 24.9906ZM39.3438 21.6721C39.355 18.9896 35.6341 18.842 35.6599 17.6437C35.6676 17.2786 36.0153 16.8913 36.7748 16.7919C37.1522 16.7427 38.1896 16.705 39.3676 17.2471L39.8289 15.0918C39.1961 14.8621 38.3819 14.6411 37.3693 14.6411C34.7707 14.6411 32.9417 16.0227 32.9262 18.0011C32.9098 19.4641 34.2319 20.2805 35.2282 20.7669C36.2524 21.2652 36.5966 21.5843 36.5921 22.0298C36.5854 22.7121 35.775 23.0126 35.0191 23.0245C33.697 23.0454 32.9298 22.6677 32.3182 22.3827L31.8418 24.6097C32.4559 24.8918 33.5898 25.137 34.7662 25.1495C37.5279 25.1495 39.3348 23.7849 39.3438 21.6721ZM28.4536 14.827L24.1938 24.9906H21.4142L19.3181 16.8794C19.1907 16.3798 19.0801 16.1971 18.6931 15.9864C18.0616 15.6438 17.0178 15.3218 16.0994 15.1223L16.1621 14.827H20.6357C21.2057 14.827 21.7188 15.2066 21.8481 15.8632L22.9554 21.7448L25.6913 14.827H28.4536Z" fill="#1434CB"/>
</g>
<g filter="url(#filter1_dd_20_319)">
<rect x="67.8026" y="4.70605" width="46.6143" height="30.0304" rx="5.37857" fill="white"/>
<rect x="67.6906" y="4.594" width="46.8384" height="30.2545" rx="5.49062" stroke="#D6DCE5" stroke-width="0.224107"/>
<path d="M94.4583 13.5544H87.595V25.888H94.4583V13.5544Z" fill="#FF5F00"/>
<path d="M88.0308 19.7212C88.0297 18.5334 88.2989 17.3609 88.8179 16.2925C89.337 15.2241 90.0923 14.2878 91.0267 13.5544C89.8695 12.6449 88.4799 12.0793 87.0165 11.9222C85.5531 11.7652 84.0751 12.023 82.7513 12.6662C81.4275 13.3095 80.3115 14.3122 79.5306 15.5598C78.7498 16.8073 78.3357 18.2494 78.3357 19.7212C78.3357 21.193 78.7498 22.6351 79.5306 23.8826C80.3115 25.1302 81.4275 26.1329 82.7513 26.7761C84.0751 27.4194 85.5531 27.6772 87.0165 27.5201C88.4799 27.3631 89.8695 26.7975 91.0267 25.8879C90.0923 25.1546 89.337 24.2183 88.8179 23.1499C88.2989 22.0815 88.0297 20.909 88.0308 19.7212Z" fill="#EB001B"/>
<path d="M103.717 19.7212C103.717 21.1929 103.303 22.635 102.522 23.8826C101.742 25.1302 100.626 26.1329 99.3018 26.7761C97.9781 27.4194 96.5001 27.6772 95.0367 27.5201C93.5734 27.3631 92.1837 26.7975 91.0267 25.8879C91.9602 25.1539 92.7149 24.2174 93.2339 23.1492C93.7528 22.0809 94.0225 20.9088 94.0225 19.7212C94.0225 18.5336 93.7528 17.3615 93.2339 16.2932C92.7149 15.225 91.9602 14.2885 91.0267 13.5544C92.1837 12.6449 93.5734 12.0793 95.0367 11.9222C96.5001 11.7652 97.9781 12.023 99.3018 12.6663C100.626 13.3095 101.742 14.3122 102.522 15.5598C103.303 16.8074 103.717 18.2494 103.717 19.7212Z" fill="#F79E1B"/>
<path d="M102.969 24.5816V24.3291H103.071V24.2777H102.811V24.3291H102.913V24.5816H102.969ZM103.472 24.5816V24.2772H103.393L103.301 24.4866L103.21 24.2772H103.13V24.5816H103.187V24.352L103.272 24.55H103.33L103.416 24.3515V24.5816H103.472Z" fill="#F79E1B"/>
</g>
<g filter="url(#filter2_dd_20_319)">
<rect x="126.417" y="4.70605" width="46.6143" height="30.0304" rx="5.37857" fill="white"/>
<rect x="126.305" y="4.594" width="46.8384" height="30.2545" rx="5.49062" stroke="#D6DCE5" stroke-width="0.224107"/>
<path fill-rule="evenodd" clip-rule="evenodd" d="M136.614 15.3521H133.927C133.743 15.3521 133.586 15.4857 133.558 15.6672L132.471 22.5579C132.449 22.6939 132.554 22.8165 132.692 22.8165H133.975C134.159 22.8165 134.316 22.6828 134.344 22.501L134.637 20.6425C134.666 20.4605 134.823 20.327 135.006 20.327H135.857C137.627 20.327 138.649 19.4704 138.916 17.773C139.036 17.0304 138.921 16.4469 138.573 16.0381C138.191 15.5895 137.513 15.3521 136.614 15.3521ZM136.924 17.8688C136.777 18.8331 136.04 18.8331 135.328 18.8331H134.922L135.207 17.0322C135.224 16.9234 135.318 16.8433 135.428 16.8433H135.614C136.099 16.8433 136.557 16.8433 136.794 17.1198C136.935 17.2849 136.978 17.53 136.924 17.8688ZM144.648 17.8379H143.361C143.251 17.8379 143.156 17.9181 143.139 18.027L143.082 18.3868L142.992 18.2565C142.714 17.8521 142.093 17.717 141.472 17.717C140.05 17.717 138.836 18.794 138.599 20.3048C138.476 21.0583 138.651 21.7789 139.078 22.2815C139.471 22.7436 140.032 22.9361 140.699 22.9361C141.845 22.9361 142.481 22.1993 142.481 22.1993L142.423 22.557C142.402 22.6937 142.507 22.8163 142.644 22.8163H143.803C143.988 22.8163 144.143 22.6826 144.172 22.5008L144.868 18.0965C144.89 17.961 144.785 17.8379 144.648 17.8379ZM142.854 20.3424C142.729 21.0776 142.146 21.5711 141.402 21.5711C141.028 21.5711 140.729 21.4513 140.538 21.2242C140.347 20.9987 140.275 20.6776 140.336 20.3201C140.452 19.5911 141.045 19.0816 141.778 19.0816C142.143 19.0816 142.44 19.2029 142.636 19.432C142.832 19.6635 142.91 19.9864 142.854 20.3424ZM150.209 17.8377H151.502C151.683 17.8377 151.789 18.0408 151.686 18.1894L147.384 24.3975C147.315 24.4981 147.2 24.5579 147.077 24.5579H145.786C145.604 24.5579 145.498 24.3531 145.603 24.2042L146.942 22.3139L145.518 18.1339C145.469 17.9886 145.576 17.8377 145.73 17.8377H147.001C147.166 17.8377 147.312 17.9461 147.36 18.1041L148.116 20.6287L149.899 18.0015C149.969 17.899 150.085 17.8377 150.209 17.8377Z" fill="#253B80"/>
<path fill-rule="evenodd" clip-rule="evenodd" d="M164.231 22.5573L165.334 15.5405C165.351 15.4316 165.445 15.3514 165.555 15.3511H166.797C166.934 15.3511 167.039 15.474 167.017 15.61L165.93 22.5004C165.901 22.6822 165.745 22.8159 165.561 22.8159H164.452C164.315 22.8159 164.209 22.6933 164.231 22.5573ZM155.784 15.3514H153.096C152.913 15.3514 152.756 15.4851 152.728 15.6666L151.641 22.5573C151.619 22.6933 151.724 22.8159 151.862 22.8159H153.241C153.369 22.8159 153.479 22.7224 153.499 22.5951L153.807 20.6419C153.835 20.4598 153.992 20.3264 154.176 20.3264H155.026C156.797 20.3264 157.818 19.4698 158.085 17.7724C158.206 17.0298 158.09 16.4463 157.742 16.0375C157.361 15.5889 156.684 15.3514 155.784 15.3514ZM156.094 17.8682C155.948 18.8324 155.211 18.8324 154.498 18.8324H154.093L154.378 17.0316C154.395 16.9228 154.488 16.8426 154.598 16.8426H154.784C155.269 16.8426 155.728 16.8426 155.964 17.1192C156.105 17.2843 156.148 17.5294 156.094 17.8682ZM163.817 17.8373H162.531C162.42 17.8373 162.327 17.9175 162.31 18.0264L162.253 18.3862L162.163 18.2559C161.884 17.8515 161.263 17.7164 160.643 17.7164C159.221 17.7164 158.007 18.7934 157.77 20.3042C157.647 21.0577 157.821 21.7783 158.249 22.2809C158.642 22.7429 159.202 22.9355 159.87 22.9355C161.016 22.9355 161.651 22.1987 161.651 22.1987L161.594 22.5564C161.572 22.6931 161.678 22.8157 161.816 22.8157H162.974C163.158 22.8157 163.314 22.682 163.343 22.5002L164.039 18.0958C164.06 17.9604 163.955 17.8373 163.817 17.8373ZM162.023 20.3418C161.9 21.077 161.315 21.5705 160.571 21.5705C160.198 21.5705 159.899 21.4507 159.707 21.2235C159.517 20.9981 159.445 20.677 159.505 20.3195C159.622 19.5905 160.214 19.081 160.947 19.081C161.313 19.081 161.61 19.2023 161.806 19.4314C162.002 19.6629 162.08 19.9858 162.023 20.3418Z" fill="#179BD7"/>
</g>
<g filter="url(#filter3_dd_20_319)">
<rect x="185.031" y="4.70605" width="46.6143" height="30.0304" rx="5.37857" fill="white"/>
<rect x="184.919" y="4.594" width="46.8384" height="30.2545" rx="5.49062" stroke="#D6DCE5" stroke-width="0.224107"/>
<path d="M200.108 15.7878C200.419 15.3988 200.63 14.8765 200.575 14.3428C200.119 14.3654 199.564 14.6431 199.242 15.0324C198.953 15.3658 198.698 15.9099 198.764 16.4213C199.275 16.4656 199.786 16.1658 200.108 15.7878Z" fill="#000008"/>
<path d="M200.569 16.5211C199.827 16.4769 199.196 16.9423 198.841 16.9423C198.487 16.9423 197.944 16.5434 197.357 16.5542C196.593 16.5654 195.884 16.9974 195.496 17.6844C194.699 19.0589 195.286 21.0977 196.061 22.2171C196.438 22.7709 196.892 23.3807 197.49 23.3588C198.055 23.3366 198.276 22.9929 198.963 22.9929C199.649 22.9929 199.849 23.3588 200.447 23.3477C201.067 23.3366 201.455 22.7936 201.832 22.2392C202.264 21.6079 202.441 20.9983 202.452 20.9649C202.441 20.9538 201.256 20.4992 201.245 19.1362C201.233 17.9949 202.175 17.4521 202.219 17.4184C201.688 16.6321 200.857 16.5434 200.569 16.5211Z" fill="#000008"/>
<path d="M207.031 14.9766C208.644 14.9766 209.767 16.0885 209.767 17.7073C209.767 19.3319 208.621 20.4496 206.99 20.4496H205.204V23.2898H203.914V14.9766L207.031 14.9766ZM205.204 19.3665H206.685C207.809 19.3665 208.448 18.7616 208.448 17.7131C208.448 16.6646 207.809 16.0655 206.691 16.0655H205.204V19.3665Z" fill="#000008"/>
<path d="M210.104 21.5673C210.104 20.5071 210.917 19.8562 212.357 19.7755L214.016 19.6776V19.211C214.016 18.5369 213.561 18.1337 212.801 18.1337C212.08 18.1337 211.631 18.4793 211.522 19.0209H210.346C210.415 17.9262 211.349 17.1197 212.847 17.1197C214.316 17.1197 215.255 17.8974 215.255 19.113V23.2898H214.062V22.2931H214.033C213.682 22.9672 212.916 23.3934 212.121 23.3934C210.934 23.3934 210.104 22.656 210.104 21.5673ZM214.016 21.02V20.5418L212.524 20.6339C211.781 20.6858 211.36 21.0142 211.36 21.5327C211.36 22.0626 211.798 22.4083 212.466 22.4083C213.336 22.4083 214.016 21.8092 214.016 21.02Z" fill="#000008"/>
<path d="M216.381 25.5193V24.5111C216.473 24.5341 216.68 24.5341 216.784 24.5341C217.36 24.5341 217.671 24.2922 217.861 23.67C217.861 23.6585 217.97 23.3013 217.97 23.2955L215.781 17.2291H217.129L218.662 22.1606H218.685L220.217 17.2291H221.531L219.261 23.6066C218.743 25.0757 218.143 25.5481 216.887 25.5481C216.784 25.5481 216.473 25.5366 216.381 25.5193Z" fill="#000008"/>
</g>
<g filter="url(#filter4_dd_20_319)">
<rect x="243.646" y="4.70605" width="46.6143" height="30.0304" rx="5.37857" fill="white"/>
<rect x="243.533" y="4.594" width="46.8384" height="30.2545" rx="5.49062" stroke="#D6DCE5" stroke-width="0.224107"/>
<path d="M265.939 23.3204H264.891V15.1621H267.67C268.375 15.1621 268.975 15.3969 269.467 15.8665C269.969 16.3362 270.22 16.9095 270.22 17.5866C270.22 18.2802 269.969 18.8535 269.467 19.3177C268.981 19.7818 268.38 20.0112 267.67 20.0112H265.939V23.3204ZM265.939 16.1669V19.0119H267.692C268.107 19.0119 268.457 18.8699 268.73 18.5914C269.008 18.3129 269.15 17.9744 269.15 17.5921C269.15 17.2153 269.008 16.8822 268.73 16.6037C268.457 16.3143 268.113 16.1723 267.692 16.1723H265.939V16.1669Z" fill="#3C4043"/>
<path d="M272.962 17.5539C273.737 17.5539 274.349 17.7614 274.796 18.1764C275.244 18.5914 275.468 19.1593 275.468 19.8801V23.3204H274.469V22.5449H274.425C273.994 23.1838 273.415 23.5006 272.694 23.5006C272.077 23.5006 271.564 23.3204 271.149 22.9545C270.734 22.5886 270.526 22.1354 270.526 21.5893C270.526 21.0105 270.745 20.5518 271.181 20.2132C271.618 19.8692 272.203 19.6999 272.929 19.6999C273.551 19.6999 274.065 19.8146 274.463 20.044V19.8037C274.463 19.4378 274.321 19.132 274.032 18.8754C273.742 18.6187 273.404 18.4931 273.016 18.4931C272.432 18.4931 271.968 18.7388 271.629 19.2358L270.706 18.6569C271.214 17.9197 271.968 17.5539 272.962 17.5539ZM271.607 21.6057C271.607 21.8787 271.722 22.1081 271.957 22.2883C272.186 22.4685 272.459 22.5613 272.77 22.5613C273.213 22.5613 273.606 22.3975 273.95 22.0699C274.294 21.7422 274.469 21.36 274.469 20.9177C274.141 20.661 273.688 20.53 273.104 20.53C272.678 20.53 272.323 20.6337 272.039 20.8357C271.749 21.0487 271.607 21.3054 271.607 21.6057Z" fill="#3C4043"/>
<path d="M281.169 17.7341L277.674 25.7723H276.593L277.893 22.96L275.588 17.7341H276.73L278.39 21.7423H278.411L280.028 17.7341H281.169Z" fill="#3C4043"/>
<path d="M261.769 19.3504C261.769 19.0086 261.738 18.6815 261.682 18.367H257.287V20.169L259.818 20.1695C259.715 20.7691 259.385 21.2803 258.879 21.621V22.7901H260.385C261.265 21.9759 261.769 20.7724 261.769 19.3504Z" fill="#4285F4"/>
<path d="M258.879 21.6211C258.46 21.9039 257.92 22.0694 257.288 22.0694C256.067 22.0694 255.032 21.247 254.661 20.1385H253.107V21.3442C253.877 22.8721 255.46 23.9205 257.288 23.9205C258.552 23.9205 259.613 23.505 260.386 22.7896L258.879 21.6211Z" fill="#34A853"/>
<path d="M254.515 19.244C254.515 18.9327 254.567 18.6318 254.661 18.3489V17.1432H253.107C252.789 17.775 252.61 18.4882 252.61 19.244C252.61 19.9997 252.789 20.7129 253.107 21.3447L254.661 20.139C254.567 19.8561 254.515 19.5552 254.515 19.244Z" fill="#FABB05"/>
<path d="M257.288 16.4181C257.978 16.4181 258.595 16.6556 259.083 17.1198L260.418 15.7857C259.607 15.0305 258.55 14.5669 257.288 14.5669C255.46 14.5669 253.877 15.6153 253.107 17.1432L254.661 18.3489C255.032 17.2404 256.067 16.4181 257.288 16.4181Z" fill="#E94235"/>
</g>
<defs>
<filter id="filter0_dd_20_319" x="-5.24521e-05" y="-0.000209332" width="64.9911" height="48.4071" filterUnits="userSpaceOnUse" color-interpolation-filters="sRGB">
<feFlood flood-opacity="0" result="BackgroundImageFix"/>
<feColorMatrix in="SourceAlpha" type="matrix" values="0 0 0 0 0 0 0 0 0 0 0 0 0 0 0 0 0 0 127 0" result="hardAlpha"/>
<feOffset dy="0.448214"/>
<feGaussianBlur stdDeviation="2.24107"/>
<feColorMatrix type="matrix" values="0 0 0 0 0.717647 0 0 0 0 0.717647 0 0 0 0 0.717647 0 0 0 0.08 0"/>
<feBlend mode="normal" in2="BackgroundImageFix" result="effect1_dropShadow_20_319"/>
<feColorMatrix in="SourceAlpha" type="matrix" values="0 0 0 0 0 0 0 0 0 0 0 0 0 0 0 0 0 0 127 0" result="hardAlpha"/>
<feOffset dy="4.48214"/>
<feGaussianBlur stdDeviation="4.48214"/>
<feColorMatrix type="matrix" values="0 0 0 0 0.717647 0 0 0 0 0.717647 0 0 0 0 0.717647 0 0 0 0.08 0"/>
<feBlend mode="normal" in2="effect1_dropShadow_20_319" result="effect2_dropShadow_20_319"/>
<feBlend mode="normal" in="SourceGraphic" in2="effect2_dropShadow_20_319" result="shape"/>
</filter>
<filter id="filter1_dd_20_319" x="58.6142" y="-0.000209332" width="64.9911" height="48.4071" filterUnits="userSpaceOnUse" color-interpolation-filters="sRGB">
<feFlood flood-opacity="0" result="BackgroundImageFix"/>
<feColorMatrix in="SourceAlpha" type="matrix" values="0 0 0 0 0 0 0 0 0 0 0 0 0 0 0 0 0 0 127 0" result="hardAlpha"/>
<feOffset dy="0.448214"/>
<feGaussianBlur stdDeviation="2.24107"/>
<feColorMatrix type="matrix" values="0 0 0 0 0.717647 0 0 0 0 0.717647 0 0 0 0 0.717647 0 0 0 0.08 0"/>
<feBlend mode="normal" in2="BackgroundImageFix" result="effect1_dropShadow_20_319"/>
<feColorMatrix in="SourceAlpha" type="matrix" values="0 0 0 0 0 0 0 0 0 0 0 0 0 0 0 0 0 0 127 0" result="hardAlpha"/>
<feOffset dy="4.48214"/>
<feGaussianBlur stdDeviation="4.48214"/>
<feColorMatrix type="matrix" values="0 0 0 0 0.717647 0 0 0 0 0.717647 0 0 0 0 0.717647 0 0 0 0.08 0"/>
<feBlend mode="normal" in2="effect1_dropShadow_20_319" result="effect2_dropShadow_20_319"/>
<feBlend mode="normal" in="SourceGraphic" in2="effect2_dropShadow_20_319" result="shape"/>
</filter>
<filter id="filter2_dd_20_319" x="117.228" y="-0.000209332" width="64.9911" height="48.4071" filterUnits="userSpaceOnUse" color-interpolation-filters="sRGB">
<feFlood flood-opacity="0" result="BackgroundImageFix"/>
<feColorMatrix in="SourceAlpha" type="matrix" values="0 0 0 0 0 0 0 0 0 0 0 0 0 0 0 0 0 0 127 0" result="hardAlpha"/>
<feOffset dy="0.448214"/>
<feGaussianBlur stdDeviation="2.24107"/>
<feColorMatrix type="matrix" values="0 0 0 0 0.717647 0 0 0 0 0.717647 0 0 0 0 0.717647 0 0 0 0.08 0"/>
<feBlend mode="normal" in2="BackgroundImageFix" result="effect1_dropShadow_20_319"/>
<feColorMatrix in="SourceAlpha" type="matrix" values="0 0 0 0 0 0 0 0 0 0 0 0 0 0 0 0 0 0 127 0" result="hardAlpha"/>
<feOffset dy="4.48214"/>
<feGaussianBlur stdDeviation="4.48214"/>
<feColorMatrix type="matrix" values="0 0 0 0 0.717647 0 0 0 0 0.717647 0 0 0 0 0.717647 0 0 0 0.08 0"/>
<feBlend mode="normal" in2="effect1_dropShadow_20_319" result="effect2_dropShadow_20_319"/>
<feBlend mode="normal" in="SourceGraphic" in2="effect2_dropShadow_20_319" result="shape"/>
</filter>
<filter id="filter3_dd_20_319" x="175.843" y="-0.000209332" width="64.9911" height="48.4071" filterUnits="userSpaceOnUse" color-interpolation-filters="sRGB">
<feFlood flood-opacity="0" result="BackgroundImageFix"/>
<feColorMatrix in="SourceAlpha" type="matrix" values="0 0 0 0 0 0 0 0 0 0 0 0 0 0 0 0 0 0 127 0" result="hardAlpha"/>
<feOffset dy="0.448214"/>
<feGaussianBlur stdDeviation="2.24107"/>
<feColorMatrix type="matrix" values="0 0 0 0 0.717647 0 0 0 0 0.717647 0 0 0 0 0.717647 0 0 0 0.08 0"/>
<feBlend mode="normal" in2="BackgroundImageFix" result="effect1_dropShadow_20_319"/>
<feColorMatrix in="SourceAlpha" type="matrix" values="0 0 0 0 0 0 0 0 0 0 0 0 0 0 0 0 0 0 127 0" result="hardAlpha"/>
<feOffset dy="4.48214"/>
<feGaussianBlur stdDeviation="4.48214"/>
<feColorMatrix type="matrix" values="0 0 0 0 0.717647 0 0 0 0 0.717647 0 0 0 0 0.717647 0 0 0 0.08 0"/>
<feBlend mode="normal" in2="effect1_dropShadow_20_319" result="effect2_dropShadow_20_319"/>
<feBlend mode="normal" in="SourceGraphic" in2="effect2_dropShadow_20_319" result="shape"/>
</filter>
<filter id="filter4_dd_20_319" x="234.457" y="-0.000209332" width="64.9911" height="48.4071" filterUnits="userSpaceOnUse" color-interpolation-filters="sRGB">
<feFlood flood-opacity="0" result="BackgroundImageFix"/>
<feColorMatrix in="SourceAlpha" type="matrix" values="0 0 0 0 0 0 0 0 0 0 0 0 0 0 0 0 0 0 127 0" result="hardAlpha"/>
<feOffset dy="0.448214"/>
<feGaussianBlur stdDeviation="2.24107"/>
<feColorMatrix type="matrix" values="0 0 0 0 0.717647 0 0 0 0 0.717647 0 0 0 0 0.717647 0 0 0 0.08 0"/>
<feBlend mode="normal" in2="BackgroundImageFix" result="effect1_dropShadow_20_319"/>
<feColorMatrix in="SourceAlpha" type="matrix" values="0 0 0 0 0 0 0 0 0 0 0 0 0 0 0 0 0 0 127 0" result="hardAlpha"/>
<feOffset dy="4.48214"/>
<feGaussianBlur stdDeviation="4.48214"/>
<feColorMatrix type="matrix" values="0 0 0 0 0.717647 0 0 0 0 0.717647 0 0 0 0 0.717647 0 0 0 0.08 0"/>
<feBlend mode="normal" in2="effect1_dropShadow_20_319" result="effect2_dropShadow_20_319"/>
<feBlend mode="normal" in="SourceGraphic" in2="effect2_dropShadow_20_319" result="shape"/>
</filter>
</defs>
</svg>
